<svg xmlns="http://www.w3.org/2000/svg" xmlns:xlink="http://www.w3.org/1999/xlink" width="500" zoomAndPan="magnify" viewBox="0 0 375 374.999991" height="500" preserveAspectRatio="xMidYMid meet" version="1.0"><defs><g/><clipPath id="c515250547"><path d="M 51 0 L 324 0 C 337.527344 0 350.5 5.375 360.0625 14.9375 C 369.625 24.5 375 37.472656 375 51 L 375 324 C 375 337.527344 369.625 350.5 360.0625 360.0625 C 350.5 369.625 337.527344 375 324 375 L 51 375 C 37.472656 375 24.5 369.625 14.9375 360.0625 C 5.375 350.5 0 337.527344 0 324 L 0 51 C 0 37.472656 5.375 24.5 14.9375 14.9375 C 24.5 5.375 37.472656 0 51 0 Z M 51 0 " clip-rule="nonzero"/></clipPath><clipPath id="f3530910ce"><path d="M 265.042969 229.6875 L 321.292969 229.6875 L 321.292969 285.9375 L 265.042969 285.9375 Z M 265.042969 229.6875 " clip-rule="nonzero"/></clipPath><clipPath id="17ab5d6e93"><path d="M 282.292969 229.6875 L 304.042969 229.6875 C 308.621094 229.6875 313.007812 231.503906 316.242188 234.738281 C 319.476562 237.976562 321.292969 242.363281 321.292969 246.9375 L 321.292969 268.6875 C 321.292969 273.261719 319.476562 277.648438 316.242188 280.886719 C 313.007812 284.121094 308.621094 285.9375 304.042969 285.9375 L 282.292969 285.9375 C 277.71875 285.9375 273.332031 284.121094 270.097656 280.886719 C 266.863281 277.648438 265.042969 273.261719 265.042969 268.6875 L 265.042969 246.9375 C 265.042969 242.363281 266.863281 237.976562 270.097656 234.738281 C 273.332031 231.503906 277.71875 229.6875 282.292969 229.6875 Z M 282.292969 229.6875 " clip-rule="nonzero"/></clipPath></defs><g clip-path="url(#c515250547)"><rect x="-37.5" width="450" fill="#262626" y="-37.499999" height="449.999989" fill-opacity="1"/></g><g fill="#ffffff" fill-opacity="1"><g transform="translate(109.955344, 285.196639)"><g><path d="M 60.625 0 L 60.625 -158.078125 L 1.25 -158.078125 L 1.25 -186.140625 L 153.828125 -186.140625 L 153.828125 -158.078125 L 94.453125 -158.078125 L 94.453125 0 Z M 60.625 0 "/></g></g></g><g clip-path="url(#f3530910ce)"><g clip-path="url(#17ab5d6e93)"><path fill="#ffffff" d="M 265.042969 229.6875 L 321.292969 229.6875 L 321.292969 285.9375 L 265.042969 285.9375 Z M 265.042969 229.6875 " fill-opacity="1" fill-rule="nonzero"/></g></g></svg>